<svg width="580" height="400" xmlns="http://www.w3.org/2000/svg">
 <!-- Created with Method Draw - http://github.com/duopixel/Method-Draw/ -->

 <g>
  <title>background</title>
  <rect fill="#fff" id="canvas_background" height="402" width="582" y="-1" x="-1"/>
  <g display="none" overflow="visible" y="0" x="0" height="100%" width="100%" id="canvasGrid">
   <rect fill="url(#gridpattern)" stroke-width="0" y="0" x="0" height="100%" width="100%"/>
  </g>
 </g>
 <g>
  <title>Layer 1</title>
  <defs>
   <style>.cls-1{fill:#f2f2f2;}.cls-2{fill:#6bd5e1;}.cls-10,.cls-13,.cls-14,.cls-15,.cls-2,.cls-3,.cls-4,.cls-5,.cls-6,.cls-7,.cls-8{fill-rule:evenodd;}.cls-3{fill:#e49d75;}.cls-4{fill:#56cad8;}.cls-5{fill:#ffd98e;}.cls-6{fill:#d18c65;}.cls-7{fill:#ffe4ad;}.cls-8{fill:#dfdfdf;}.cls-11,.cls-12,.cls-15,.cls-9{fill:none;stroke-linejoin:round;}.cls-9{stroke:#fff;stroke-width:1.01px;}.cls-11,.cls-9{stroke-linecap:square;}.cls-10{fill:#fd8369;}.cls-11,.cls-15{stroke:#6bd5e1;}.cls-11{stroke-width:1.36px;}.cls-12{stroke:#ffd98e;stroke-width:2.42px;}.cls-12,.cls-15{stroke-linecap:round;}.cls-13{fill:#2b2b2b;}.cls-15{stroke-width:4px;}</style>
  </defs>
  <g stroke="null" id="svg_44">
   <g stroke="null" transform="matrix(0.40117911418085145,0,0,0.40117911418085145,-3945.2724128768123,-2753.9588763386228) " id="svg_5">
    <g stroke="null" id="svg_6">
     <path stroke="null" stroke-width="99" id="svg_8" d="m10931.370792,7075.051311c75.1,115.45 51.12,288.51 -1.56,429.75c-52.46,141.05 -133.39,250.18 -239.43,297.05c-105.81,46.86 -236.51,31.39 -336.49,-25.33c-100.21,-56.74 -169.71,-154.67 -175.31,-247.96c-5.83,-93 52.46,-181.14 117.92,-294.35s138.54,-251.53 262.07,-291.88c123.74,-40.35 297.7,17.52 372.8,132.72z" class="cls-1"/>
     <path stroke="null" stroke-width="99" id="svg_9" d="m10526.430792,7078.281311l-3,-15.15a16.31,16.31 0 0 0 -19.16,-12.8l-60.33,12a16.31,16.31 0 0 0 -12.8,19.16l44,220.87a16.29,16.29 0 0 0 19.16,12.8l39.76,-7.92c5.27,-1.35 12.2,-3.39 12.2,-3.39l-19.83,-225.57" class="cls-2"/>
     <path stroke="null" stroke-width="99" id="svg_10" d="m10688.940792,7779.211311l4.85,15.22l40.49,-9.3l-3.43,-18.21l-41.91,12.29z" class="cls-3"/>
     <path stroke="null" stroke-width="99" id="svg_11" d="m10436.900792,7646.761311l-14.85,7.09l20.06,35.7l17.44,-11.36l-22.65,-31.43z" class="cls-3"/>
     <path stroke="null" stroke-width="99" id="svg_12" d="m10528.760792,7272.901311s40.69,214.09 52.44,243c-15.59,12.66 -145.1,131.13 -145.1,131.13l22,32.26l187.5,-107.35l-38.55,-320.85l-78.29,21.81z" class="cls-4"/>
     <path stroke="null" stroke-width="99" id="svg_13" d="m10555.110792,7280.981311c9.56,23.87 133.72,498.56 133.72,498.56l43.45,-11.46l-38.2,-522.43s-148.52,11.46 -138.97,35.33z" class="cls-2"/>
     <path stroke="null" stroke-width="99" id="svg_14" d="m10577.240792,7036.411311c95.94,-20.91 129.94,185.36 123.44,211.06s-158.19,51 -169.31,35.44s-55.58,-224.39 45.87,-246.5z" class="cls-5"/>
     <path stroke="null" stroke-width="99" id="svg_15" d="m10551.380792,6984.771311c6.32,16.29 8.71,40.73 10.25,64.32c8.48,7.38 33.57,4.92 37.08,0.56c-2.81,-7.44 -2.11,-30.47 -0.56,-37.63s-50.3,-36.34 -46.77,-27.25z" class="cls-6"/>
     <path stroke="null" stroke-width="99" id="svg_16" d="m10702.570792,7292.931311l0,0z" class="cls-7"/>
     <path stroke="null" stroke-width="99" id="svg_17" d="m10706.680792,7018.561311l30.41,-116.95l13.6,3.53l-30.41,117l-13.6,-3.58z" class="cls-8"/>
     <path stroke="null" stroke-width="99" id="svg_18" d="m10714.950792,7007.541311l7.79,2" class="cls-9"/>
     <path stroke="null" stroke-width="99" id="svg_19" d="m10718.950792,6992.161311l7.79,2" class="cls-9"/>
     <path stroke="null" stroke-width="99" id="svg_20" d="m10722.940792,6976.781311l7.8,2" class="cls-9"/>
     <path stroke="null" stroke-width="99" id="svg_21" d="m10726.940792,6961.401311l7.8,2" class="cls-9"/>
     <path stroke="null" stroke-width="99" id="svg_22" d="m10730.940792,6946.021311l7.79,2" class="cls-9"/>
     <path stroke="null" stroke-width="99" id="svg_23" d="m10734.940792,6930.641311l7.79,2" class="cls-9"/>
     <path stroke="null" stroke-width="99" id="svg_24" d="m10738.940792,6915.261311l7.79,2" class="cls-9"/>
     <path stroke="null" stroke-width="99" id="svg_25" d="m10752.110792,6974.211311c8.12,-2.86 13.64,4.65 15.86,11.33c3.56,10.74 1.2,20.54 -2.22,22a9.23,9.23 0 0 1 -11.1,-2.85c-0.24,2.93 -0.66,5.37 -6,7.69c-8,3.47 -16.84,-7 -18.93,-12.4c-2.78,-7.1 -1.47,-17.7 4.5,-20.26c4.92,-2.11 8.28,-0.59 9.83,1.35c2.19,-3.45 4.65,-5.66 8.06,-6.86z" class="cls-4"/>
     <path stroke="null" stroke-width="99" id="svg_26" d="m10746.940792,6952.611311c11.75,1 2.92,19.59 -2.62,23.55c-3.92,-3.31 -8.75,-24.52 2.62,-23.55z" class="cls-10"/>
     <path stroke="null" stroke-width="99" id="svg_27" d="m10534.950792,7172.031311c-0.84,17.67 -5.55,65.05 29.91,73.25c33.73,7.81 144.6,-67.35 164.51,-71.83s20.24,2.6 34.69,-2.82c28.49,-10.7 23,-22.44 20.75,-34.49c-12.06,3.92 -183.55,46 -189.34,47.52a44.66,44.66 0 0 1 -3.93,-17.43s-55.75,-11.87 -56.59,5.8z" class="cls-3"/>
     <path stroke="null" stroke-width="99" id="svg_28" d="m10556.400792,7074.351311c47.76,-2.32 51.2,95.68 44.18,102.11s-73.4,11.12 -78.4,3.81s-7.91,-103.87 34.22,-105.92z" class="cls-7"/>
     <path stroke="null" stroke-width="99" id="svg_29" d="m10658.560792,7131.781311c-11.3,2.84 -18.53,12.8 -16.15,22.24s13.46,14.83 24.77,11.94l123.18,-31l-8.6,-34.18l-123.2,31z" class="cls-10"/>
     <path stroke="null" stroke-width="99" id="svg_30" d="m10656.840792,7107.261311l174.4,-44.09l6,23.78l-174.4,44.08l-6,-23.77z" class="cls-8"/>
     <path stroke="null" stroke-width="99" id="svg_31" d="m10652.390792,7066.531311l126.23,-31.91l10.06,39.79l-126.24,31.91l-10.05,-39.79z" class="cls-4"/>
     <path stroke="null" stroke-width="99" id="svg_32" d="m10609.750792,7052.131311l174.43,-44.09l6,23.81l-174.4,44.08l-6.03,-23.8z" class="cls-10"/>
     <path stroke="null" stroke-width="99" id="svg_33" d="m10661.360792,7135.261311l6.25,25.2" class="cls-11"/>
     <path stroke="null" stroke-width="99" id="svg_34" d="m10665.910792,7078.261311l35.62,-9l2.84,11.23l-35.62,9l-2.84,-11.23z" class="cls-8"/>
     <path stroke="null" stroke-width="99" id="svg_35" d="m10622.280792,7061.431311l71.9,-18.41" class="cls-12"/>
     <path stroke="null" stroke-width="99" id="svg_36" d="m10389.640792,7670.161311l57.14,105.79l16.11,-8.5l-17.95,-78l-22.76,-35.92l-32.54,16.63z" class="cls-13"/>
     <path stroke="null" stroke-width="99" id="svg_37" d="m10698.820792,7829.491311l118.38,-21l-3,-18l-79.72,-7.49l-41.23,10.33l5.57,36.16z" class="cls-13"/>
     <path stroke="null" stroke-width="99" id="svg_38" d="m10621.270792,6910.411311c-4.51,-24.56 -28.65,-35.12 -49.98,-30.51c-37.09,8 -55,28 -77.15,31.73c-33.6,5.62 -64.89,-7 -100.16,2.3c-47.8,12.6 -54.91,46.73 -48,77.35c11.51,50.65 55.08,62 87.75,57.22c47.6,-7 48.41,-40.56 78.26,-45.69c13.95,-2.39 23,0.67 37.19,-2s37.22,-21.07 44,-28.08s30.77,-47.74 28.09,-62.32z" class="cls-14"/>
     <path stroke="null" stroke-width="99" id="svg_39" d="m10545.570792,6964.931311c-5,-29.64 8.85,-55.93 30.94,-58.72s44.07,18.98 49.07,48.64s-8.85,55.93 -30.94,58.72s-44.07,-19 -49.07,-48.64z" class="cls-3"/>
     <path stroke="null" stroke-width="99" id="svg_40" d="m10612.180792,6917.851311c3.65,19.44 -52.94,50.75 -70.74,54.68s-24.58,-32.78 -24.58,-32.78s60.21,-70.53 95.32,-21.9z" class="cls-14"/>
     <path stroke="null" stroke-width="99" id="svg_41" d="m10539.670792,6980.431311a10.63,10.63 0 1 1 10.62,10.62a10.62,10.62 0 0 1 -10.62,-10.62z" class="cls-3"/>
     <path stroke="null" stroke-width="99" id="svg_42" d="m10520.180792,7069.151311a42.06,42.06 0 0 1 17.72,-8.72" class="cls-15"/>
     <path stroke="null" stroke-width="99" id="svg_43" d="m10537.940792,7060.431311c31.34,-6.88 64.87,24.5 74.88,70.1c4,18.07 3.65,35.66 -0.13,50.74" class="cls-15"/>
    </g>
   </g>
  </g>
  <text stroke="#000" transform="matrix(2.050837278366089,0,0,2.050837278366089,-297.1242404580116,-268.2262153029442) " font-weight="bold" xml:space="preserve" text-anchor="start" font-family="'Trebuchet MS', Gadget, sans-serif" font-size="24" id="svg_45" y="250.957426" x="323.720773" stroke-width="0" fill="#000000">INFJ</text>
 </g>
</svg>